<mxfile host="65bd71144e">
    <diagram id="AVuA54An0n8JCF_W_x2Y" name="Page-1">
        <mxGraphModel dx="1262" dy="872" grid="1" gridSize="10" guides="1" tooltips="1" connect="1" arrows="1" fold="1" page="1" pageScale="1" pageWidth="1654" pageHeight="2336" math="0" shadow="0">
            <root>
                <mxCell id="0"/>
                <mxCell id="1" parent="0"/>
                <mxCell id="3" value="order" style="swimlane;childLayout=stackLayout;resizeParent=1;resizeParentMax=0;horizontal=0;startSize=20;horizontalStack=0;fillColor=#60a917;strokeColor=#2D7600;fontColor=#ffffff;fontSize=13;" parent="1" vertex="1">
                    <mxGeometry x="83" y="80" width="1510" height="2120" as="geometry"/>
                </mxCell>
                <mxCell id="4" value="Customer" style="swimlane;startSize=97;horizontal=0;fillColor=#0050ef;fontColor=#ffffff;strokeColor=#001DBC;fontSize=62;" parent="3" vertex="1">
                    <mxGeometry x="20" width="1490" height="300" as="geometry"/>
                </mxCell>
                <mxCell id="88" value="&lt;span style=&quot;font-size: 51px&quot;&gt;شروع&lt;/span&gt;" style="ellipse;whiteSpace=wrap;html=1;aspect=fixed;fontSize=13;fillColor=#0050ef;strokeColor=#001DBC;fontColor=#ffffff;" vertex="1" parent="4">
                    <mxGeometry x="660" y="50" width="170" height="170" as="geometry"/>
                </mxCell>
                <mxCell id="85" value="&lt;font style=&quot;font-size: 51px&quot;&gt;پایان&lt;/font&gt;" style="ellipse;whiteSpace=wrap;html=1;aspect=fixed;fontSize=13;fillColor=#0050ef;strokeColor=#001DBC;fontColor=#ffffff;" parent="4" vertex="1">
                    <mxGeometry x="1157" y="65" width="170" height="170" as="geometry"/>
                </mxCell>
                <mxCell id="21" value="Postex" style="swimlane;startSize=97;horizontal=0;fillColor=#fa6800;strokeColor=#C73500;fontColor=#000000;fontSize=62;" parent="3" vertex="1">
                    <mxGeometry x="20" y="300" width="1490" height="1380" as="geometry"/>
                </mxCell>
                <mxCell id="46" value="&lt;span style=&quot;font-size: 62px&quot;&gt;Tracking&lt;/span&gt;" style="whiteSpace=wrap;html=1;fontSize=13;fillColor=#60a917;strokeColor=#2D7600;fontColor=#ffffff;" parent="21" vertex="1">
                    <mxGeometry x="217" y="400" width="368" height="155" as="geometry"/>
                </mxCell>
                <mxCell id="91" value="&lt;span style=&quot;font-size: 62px&quot;&gt;Ticketing&lt;/span&gt;" style="whiteSpace=wrap;html=1;fontSize=13;fillColor=#60a917;strokeColor=#2D7600;fontColor=#ffffff;" vertex="1" parent="21">
                    <mxGeometry x="737" y="410" width="368" height="155" as="geometry"/>
                </mxCell>
                <mxCell id="87" value="Other service" style="swimlane;startSize=97;horizontal=0;fontSize=62;fillColor=#e3c800;fontColor=#000000;strokeColor=#B09500;" vertex="1" parent="3">
                    <mxGeometry x="20" y="1680" width="1490" height="440" as="geometry"/>
                </mxCell>
                <mxCell id="90" style="edgeStyle=orthogonalEdgeStyle;html=1;entryX=0.5;entryY=0;entryDx=0;entryDy=0;fontSize=62;" edge="1" parent="3" source="88" target="46">
                    <mxGeometry relative="1" as="geometry"/>
                </mxCell>
                <mxCell id="92" style="edgeStyle=orthogonalEdgeStyle;html=1;exitX=0.5;exitY=1;exitDx=0;exitDy=0;entryX=0.5;entryY=0;entryDx=0;entryDy=0;fontSize=62;" edge="1" parent="3" source="88" target="91">
                    <mxGeometry relative="1" as="geometry"/>
                </mxCell>
                <mxCell id="94" style="edgeStyle=orthogonalEdgeStyle;html=1;exitX=0.5;exitY=1;exitDx=0;exitDy=0;fontSize=62;" edge="1" parent="3" source="46" target="85">
                    <mxGeometry relative="1" as="geometry">
                        <Array as="points">
                            <mxPoint x="421" y="1010"/>
                            <mxPoint x="1262" y="1010"/>
                        </Array>
                    </mxGeometry>
                </mxCell>
                <mxCell id="95" style="edgeStyle=orthogonalEdgeStyle;html=1;exitX=1;exitY=0.5;exitDx=0;exitDy=0;fontSize=62;entryX=0.5;entryY=1;entryDx=0;entryDy=0;" edge="1" parent="3" source="91" target="85">
                    <mxGeometry relative="1" as="geometry">
                        <mxPoint x="1267" y="190" as="targetPoint"/>
                    </mxGeometry>
                </mxCell>
            </root>
        </mxGraphModel>
    </diagram>
</mxfile>